<?xml version="1.0" encoding="iso-8859-1"?>
<!-- Generator: Adobe Illustrator 19.0.0, SVG Export Plug-In . SVG Version: 6.00 Build 0)  -->
<svg version="1.1" id="Capa_1" xmlns="http://www.w3.org/2000/svg" xmlns:xlink="http://www.w3.org/1999/xlink" x="0px" y="0px"
	 viewBox="0 0 511.976 511.976" style="enable-background:new 0 0 511.976 511.976;" xml:space="preserve">
<g transform="matrix(1.25 0 0 -1.25 0 45)">
	<g>
		<path style="fill:#A7D28B;" d="M128.625-91.66c-44.2-61.3-121.6-90.4-121.6-90.4c-14.4-12.2-2.2-26.6-2.2-26.6l122-144.4
			c0,0,6.1-7.2,26.6-2.2c0,0,77.4,29,121.5,90.3c45.5,63.2,127.6,83.1,127.6,83.1c14.4,12.2,2.3,26.7,2.3,26.7l-121.9,144.3
			c0,0-6.1,7.2-26.6,2.3C256.325-8.56,174.225-28.46,128.625-91.66"/>
		<path style="fill:#9AAAB4;" d="M161.428-57.312c-11.8-9.7-23.1-21-32.7-34.4c-9.5-13.2-20.6-24.9-32.2-35.1l146.3-173.3
			c11.5,10.3,22.6,21.9,32.2,35.1c9.6,13.4,21,24.7,32.7,34.4L161.428-57.312z"/>
		<path style="fill:#E1E8ED;" d="M373.705-352.711c0.1,0.1,0.2,0.2,0.3,0.2c0.8,0.8,1.4,1.7,2.1,2.6c0.5,0.6,1,1.2,1.5,1.8
			c0.4,0.6,0.7,1.2,1.1,1.8c16.6,25.5,5.7,68.8-27.1,101.7c-32.8,32.8-76.1,43.7-101.7,27.1c-0.6-0.4-1.2-0.7-1.8-1.1
			c-0.6-0.5-1.2-1-1.8-1.5c-0.9-0.7-1.8-1.3-2.6-2.1c-0.1-0.1-0.2-0.2-0.3-0.3c-0.1-0.1-0.3-0.2-0.4-0.4l0.1-0.1
			c-11.7-12.4-11.8-31.6-0.1-43.4c11.8-11.8,31-11.6,43.4,0.1l0.1-0.1c-0.2-0.2-0.5-0.4-0.7-0.6c-12.4-12.4-12.7-32.1-0.7-44.1
			s31.7-11.7,44.1,0.7c0.2,0.2,0.4,0.5,0.6,0.8l0.1-0.1c-11.7-12.4-11.8-31.6-0.1-43.4c11.8-11.7,30.9-11.6,43.3,0.1l0.1-0.1
			C373.405-353.012,373.605-352.911,373.705-352.711"/>
	</g>
	<g>
		<path style="fill:#CCD6DD;" d="M243.149-266.824c10.6-10.6,27.1-11.5,39.4-3.1c5.2,8.8,6.6,17.2,6.6,19.8
			c-25.8-19.2-48.8-0.1-54,11.3C232.949-248.724,235.649-259.324,243.149-266.824z"/>
		<path style="fill:#CCD6DD;" d="M328.149-312.023c3.6,5,6.4,9.9,7.7,13.1c-16.4-15.1-47.9-4-57.3,19.9c-4.2-11.1-2-24,6.7-32.7
			C296.849-323.224,315.749-323.324,328.149-312.023z"/>
		<path style="fill:#CCD6DD;" d="M373.349-353.624c0.1,0.1,0.2,0.3,0.3,0.4c0.1,0.1,0.2,0.2,0.3,0.3c0.8,0.8,1.4,1.7,2.1,2.6
			c0.5,0.6,1,1.2,1.5,1.8c0.4,0.6,0.8,1.2,1.1,1.8c0.8,1.3,1.6,2.6,2.2,3.9c-29.9-13.7-52.1,9.2-58.3,20.4
			c-3.5-10.7-1.1-22.8,7.2-31.2C341.749-365.424,360.849-365.324,373.349-353.624L373.349-353.624z"/>
	</g>
	<g>
		<path style="fill:#67757F;" d="M163.728-235.578c-18.2,21.5-56.7-13.4-67.7-0.4c-5.3,6.3-1.9,14.5,5.1,20.3
			c11.7,9.9,20.2,4.2,25.5,8.6c3.8,3.2,3.6,7.1,1.3,9.7c-5.2,6.2-18.5,2.9-28.9-3l-5,6c-3.1,3.7-8.7,4.2-12.4,1.1
			c-3.7-3.1-4.2-8.7-1.1-12.4l5.2-6.2c-7.9-10.5-10.6-24.4-1.2-35.5c17.5-20.7,56.4,13.7,68.7-0.8c4.3-5,3.1-14.7-5.9-22.2
			c-13.4-11.3-25.6-6-31-10.6c-2.7-2.2-3.1-6.5-0.3-9.8c4.5-5.3,18.9-4.2,32.8,4.4c0,0,0,0,0-0.1l5.7-6.7c3.1-3.7,8.7-4.2,12.4-1.1
			c3.7,3.1,4.2,8.7,1,12.4l-5.7,6.7c-0.1,0.1-0.2,0.1-0.2,0.2C171.528-263.578,174.628-248.479,163.728-235.578"/>
		<path style="fill:#E1E8ED;" d="M157.605-118.121c0.1,0.1,0.2,0.2,0.3,0.3c0.8,0.8,1.4,1.7,2.1,2.6c0.5,0.6,1,1.2,1.5,1.8
			c0.4,0.6,0.8,1.2,1.1,1.8c16.6,25.5,5.7,68.9-27.1,101.7s-76.1,43.7-101.7,27.1c-0.6-0.4-1.2-0.7-1.8-1.1c-0.6-0.5-1.2-1-1.8-1.5
			c-0.9-0.7-1.8-1.3-2.6-2.1c-0.1-0.1-0.2-0.2-0.3-0.3c-0.1-0.1-0.3-0.2-0.4-0.4l0.1-0.1c-11.7-12.4-11.8-31.6-0.1-43.4
			c11.8-11.8,30.9-11.6,43.4,0.1l0.1-0.1c-0.2-0.2-0.5-0.4-0.7-0.6c-12.3-12.4-12.6-32.2-0.6-44.2s31.7-11.7,44.1,0.7
			c0.2,0.2,0.4,0.5,0.6,0.7l0.1-0.1c-11.7-12.4-11.8-31.6-0.1-43.4c11.8-11.8,30.9-11.6,43.3,0.1l0.1-0.1
			C157.405-118.422,157.505-118.222,157.605-118.121"/>
	</g>
	<g>
		<path style="fill:#CCD6DD;" d="M27.049-31.724c10.6-10.6,27.1-11.5,39.4-3.1c5.2,8.8,6.6,17.1,6.6,19.8
			c-25.8-19.2-48.9-0.1-54,11.4C16.849-13.624,19.449-24.224,27.049-31.724z"/>
		<path style="fill:#CCD6DD;" d="M112.049-76.824c3.6,5,6.4,9.8,7.6,13.1c-16.4-15.1-47.9-4-57.3,19.9c-4.2-11.1-2-24,6.7-32.7
			C80.749-88.123,99.649-88.123,112.049-76.824z"/>
		<path style="fill:#CCD6DD;" d="M157.249-118.524c0.1,0.1,0.2,0.3,0.3,0.4c0.1,0.1,0.2,0.2,0.3,0.3c0.8,0.8,1.4,1.7,2.1,2.6
			c0.5,0.6,1,1.2,1.5,1.8c0.4,0.6,0.8,1.2,1.1,1.8c0.8,1.3,1.6,2.6,2.2,3.9c-29.9-13.7-52.1,9.2-58.3,20.4
			c-3.5-10.7-1.1-22.8,7.2-31.1C125.649-130.324,144.749-130.224,157.249-118.524L157.249-118.524z"/>
	</g>
</g>
<g>
</g>
<g>
</g>
<g>
</g>
<g>
</g>
<g>
</g>
<g>
</g>
<g>
</g>
<g>
</g>
<g>
</g>
<g>
</g>
<g>
</g>
<g>
</g>
<g>
</g>
<g>
</g>
<g>
</g>
</svg>
